<?xml version="1.0" encoding="utf-8"?>
<!-- Generator: Adobe Illustrator 24.0.2, SVG Export Plug-In . SVG Version: 6.00 Build 0)  -->
<svg version="1.1" id="Capa_1" xmlns="http://www.w3.org/2000/svg" xmlns:xlink="http://www.w3.org/1999/xlink" x="0px" y="0px"
	 viewBox="0 0 2279.4 622.3" style="enable-background:new 0 0 2279.4 622.3;" xml:space="preserve">
<style type="text/css">
	.st0{fill-rule:evenodd;clip-rule:evenodd;fill:#FFFFFF;}
</style>
<title>barber</title>
<g id="Capa_2_1_">
	<g id="Capa_1-2">
		<path class="st0" d="M1269.4,363.3l55.2,3l-40.9-55.1c-7.1-8.9-16-23.1-28.4-44.5l-23.1-55.1h-17.8v55.1c0,23.1,3.5,35.6,8.9,35.6
			h21.3v14.2h-108.5v-14.3h16c1.9-0.1,3.4-1.6,3.5-3.5V120.9c0-10.7-1.8-17.8-3.5-19.6c-2.4-2.2-5.6-3.5-8.9-3.6h-16V83.5h117.3
			c15.3,0,30.3,3,44.4,8.9c24.9,12.4,37.3,32,37.3,62.2c0,8.9-3.5,16-8.9,24.9c-8.9,12.4-23.1,19.6-39.1,21.3
			c7.1,12.4,42.7,69.3,108.5,168.9l53.3,1.8l-39.1-46.2c-23.1-30.2-35.5-53.4-37.3-65.8c-1.8-19.6,3.6-33.8,12.5-46.2
			c10.7-12.4,26.7-17.8,46.2-17.8c26.7,0,44.4,23.1,53.3,71.1c-14.2-35.6-37.3-48-67.6-35.6c-8.9,3.6-16,8.9-17.8,14.2l-1.7,10.7
			c0,12.5,5.3,23.1,17.8,32c12.4,10.7,28.4,16,48,16c19.6,0,35.6-5.3,48-14.2c12.4-12.4,19.6-26.7,19.6-44.4
			c0-12.4-3.5-23.1-12.4-32c-9.8-7.4-20.5-13.4-32-17.8l-40.9-14.2c-16-7.1-28.4-14.2-37.3-21.3c-21.3-16-32-39.1-32-65.8
			c0-30.2,14.2-55.1,40.9-71.1C1431.3,7.1,1457.9,0,1490,0c26.7,0,48,3.5,65.8,8.9l3.5,42.7c1.8,7.1-1.8,10.7-7.1,10.7
			s-8.9-3.5-10.7-10.7c-1.8-8.9-8.9-17.8-19.6-23.1c-8.9-5.3-21.3-7.1-33.8-7.1c-16,0-28.4,3.5-39.1,10.7
			c-12.5,8.9-19.6,21.4-19.6,37.3c0,10.7,3.6,19.6,12.5,26.7c5.3,5.3,16,10.7,30.2,16l40.8,16c16,5.3,30.2,14.2,42.7,23.1
			c9.1,9.2,16.3,20.1,21.3,32c5.3,12.4,8.9,24.9,8.9,37.3c0,40.9-14.2,69.4-42.7,85.4c-24.9,12.4-64,19.6-115.6,19.6
			c-3.5,0-1.8,5.3,5.3,14.2c5.3,10.7,14.2,21.3,26.7,32l140.5,7.1l117.4,14.3c-1.8,5.3-72.9,10.7-213.4,16
			c19.6,12.4,40.9,19.6,60.5,24.9c37.3,7.1,71.1,7.1,99.6,0c17.8-5.3,40.9-16,69.4-32c32-17.8,56.9-30.2,76.5-37.3
			c35.6-12.4,76.4-17.8,122.7-17.8c35.6,0,64,5.3,85.3,17.8c17.8,10.7,28.4,23.1,32,39.1c3.6,16,0,28.4-8.9,40.9
			c-10.7,12.5-26.7,17.8-46.2,17.8c33.8-48,5.3-78.2-85.3-88.9c-26.2-1.8-52.5,0-78.3,5.3c-19.6,3.5-39.1,10.7-62.2,23.1l-56.9,26.7
			c-23.1,10.7-42.7,17.8-60.5,19.6c-38.2,5.3-77.2,1.6-113.7-10.7c-21.3-8.9-40.9-17.8-56.9-28.4l-67.6,1.8l138.7,211.6L1447.3,521
			c-5.3,0-33.8-33.8-85.3-103.1l-3.5-5.3l-67.6,3.5v1.9c0,0.1-0.2,1.6-0.2,1.7v0.1c-1.2,4.6-3,9-5.5,13l0,0
			c-6.1,10-15.9,17.9-28.8,23.6l-0.2,0.1c-5,2.2-10.2,3.8-15.6,5c-14.6,3.2-29.7,2.7-44.1-1.2h-0.1c-5.7-1.6-11.3-3.6-16.6-6.1
			c-12.6-5.8-23.9-14.1-33-24.6l0,0c-6.9-7.9-11.4-15.9-13.7-24c-2.3-8.2-2.4-16.8-0.3-25v-0.1c1.2-4.6,3-9,5.5-13l0,0
			c6.1-10,15.9-17.9,28.8-23.6l0.6-0.3l0.2-0.1c2.3-0.8,4.8-1.5,7.4-2.1l0,0c2.5-0.6,5.1-1.2,7.8-1.6c14.5-2.5,29.3-1.9,43.4,1.9
			c3.7,0.6,7.4,1.4,11,2.5c9.3,2.7,18,7.2,25.7,13.1l0.6,0.5L1269.4,363.3L1269.4,363.3z M1276.6,417v-4.5l0.1-1
			c0.8-5.2,0.3-10.5-1.3-15.5c-2-5.9-5.2-11.3-9.3-16l-11.8-11.8c-6.2-4.8-13.2-8.3-20.7-10.5c-1.5-0.5-3.1-0.9-4.6-1.2l0,0
			c-1.5-0.4-3.1-0.6-4.7-0.9h-0.2l-0.9-0.2c-14.5-3.9-29.8-4-44.4-0.3l0,0c-2,0.5-4.2,1.1-6.3,1.9c-10,4.5-17.5,10.5-22,17.8l0,0
			c-0.8,1.4-1.6,2.9-2.3,4.4c-0.6,1.5-1.2,3.1-1.6,4.7v0.1c-1.5,5.8-1.5,11.9,0.2,17.7c1.7,6.1,5.3,12.3,10.7,18.6h0.1
			c7.8,8.9,17.4,16,28.2,20.9c4.7,2.1,9.5,3.9,14.4,5.3h0.1c12.2,3.4,25,3.8,37.3,1.1c4.4-1,8.7-2.4,12.9-4.2l0.2-0.1
			c10.1-4.5,17.8-10.5,22.3-18l0,0C1274.7,422.7,1275.9,419.9,1276.6,417L1276.6,417z M1255.3,186.7c-7.1,7.1-17.8,10.7-32,10.7
			h-8.9v-92.5c0-1.8,1.8-3.6,7.1-3.6c13.1,0,25.5,5.9,33.8,16c8.9,10.7,12.4,23.1,12.4,35.6C1267.7,167.1,1264.2,177.8,1255.3,186.7
			L1255.3,186.7z M1827.8,83.6v14.2h-12.4l-5.4,1.8l-1.8,5.3v161.8c0,23.1,3.6,35.6,8.9,35.6h19.6v14.2H1730v-14.2h16
			c1.9-0.1,3.4-1.6,3.5-3.5v-99.6h-78.2v67.6c0,23.1,3.6,35.6,8.9,35.6h21.3v14.2h-108.4v-14.2h16c1.9-0.1,3.4-1.6,3.5-3.5V120.9
			c0-10.7-1.8-17.8-3.5-19.6s-3.6-3.6-7.1-3.6h-17.8V83.5h108.5v14.2h-14.2l-5.3,1.8l-1.8,5.3v78.2h78.2v-62.2
			c0-10.7-1.8-17.8-3.5-19.6s-3.5-3.6-7.1-3.6h-17.8V83.5L1827.8,83.6L1827.8,83.6z M1866.9,293.4c23.1,19.6,51.6,30.2,87.1,30.2
			c44.5,0,78.3-16,101.4-46.2c19.6-23.1,28.4-51.6,28.4-83.6c0-35.6-10.7-64-33.8-85.3s-51.6-32-87.1-32c-44.4,0-78.2,16-101.3,46.2
			c-19.6,24.9-28.4,53.3-28.4,83.6C1833.1,243.6,1843.8,272,1866.9,293.4z M2078.5,83.6v14.2h17.8c3.6,0,5.4,1.8,7.1,3.6
			s3.6,8.9,3.6,19.6v177.8c-0.1,1.9-1.7,3.4-3.6,3.6h-16v14.2h108.4v-14.2h-21.3c-5.3,0-8.9-12.5-8.9-35.6V208l30.2,3.6
			c26.7,0,48-7.1,64-21.3c12.4-12.4,19.6-26.7,19.6-42.7s-5.3-28.4-17.8-40.9c-14.2-16-35.6-23.1-64-23.1L2078.5,83.6z M1948.7,92.4
			c26.7,0,48,16,60.4,49.8c10.7,24.9,16,53.3,16,83.6c0,23.1-3.5,40.9-10.7,55.1c-10.7,17.8-26.7,26.7-46.2,26.7
			c-26.7,0-48-16-62.3-48c-8.9-24.9-14.2-53.3-14.2-85.3c0-21.3,3.6-39.1,10.7-53.3C1911.4,101.3,1927.3,92.4,1948.7,92.4z
			 M2208.3,117.3c8.9,10.7,12.5,23.1,12.5,37.3c0,12.4-3.6,21.3-10.7,28.4c-8.9,8.9-17.8,12.4-30.3,12.4l-14.2-3.6v-87.1
			c0-1.8,3.5-3.6,8.9-3.6C2188.7,101.3,2199.4,106.7,2208.3,117.3L2208.3,117.3z M1358.4,391.1l3.5-8.9l8.9-3.6
			c3.3,0.1,6.5,1.3,8.9,3.6l3.6,8.9c-0.1,3.3-1.3,6.5-3.6,8.9c-2.4,2.2-5.6,3.5-8.9,3.5l-8.9-3.5
			C1359.7,397.6,1358.5,394.4,1358.4,391.1z M23.1,26.6c5.3,0,8.9,1.8,10.7,3.6c3.6,5.3,5.3,14.2,5.3,26.7v236.5
			c0,1.8-3.6,3.5-8.9,3.5l-23.1,1.8v17.8h108.5l49.8-1.8c19.6-1.8,35.6-5.4,48-10.7c17.8-5.3,32-14.2,42.6-26.7
			c10.5-13.8,16.1-30.7,16-48c0-44.5-28.5-72.9-85.4-85.4c21.4-5.4,37.4-12.5,46.3-19.6c16-12.4,24.9-28.4,24.9-48
			c0-12.4-5.3-24.9-14.2-37.3c-17.8-19.6-46.2-30.3-87.1-30.3H0v17.8L23.1,26.6L23.1,26.6z M359.1,85.3l-44.4,101.3
			c-26.7,64-40.9,101.3-44.5,110.2c0,1.8-1.8,3.5-3.5,5.3h-17.8v14.2h72.9v-14.2h-26.7l-1.8-5.3c0-5.3,3.5-17.8,8.9-33.8l10.7-26.7
			h69.4c14.2,40.9,21.4,60.5,21.4,62.2s-1.8,3.5-5.3,3.5h-16v14.2H489v-14.2h-10.7c-5.3,0-8.9-1.8-10.7-7.1l-12.4-26.7l-39.1-103.1
			c-16-40.9-23.1-64-23.1-67.6l5.3-7.1c1.8-1.8,3.5-3.6,3.5-5.3c0-3.6-1.8-5.3-5.3-5.3L359.1,85.3L359.1,85.3z M128,30.2
			c17.8,0,32,5.3,44.4,17.8s17.8,28.4,17.8,46.2c0,10.7-1.8,19.6-5.3,26.7c-5.3,8.9-12.4,16-21.3,17.8l-48-3.6V35.5
			C115.6,32,119.1,30.2,128,30.2z M115.6,218.7v-65.8c30.2,0,51.6,8.9,65.8,28.4c10.5,13.8,16.1,30.7,16,48c0,17.8-5.3,33.8-16,46.2
			c-12.4,12.5-26.7,19.6-44.4,19.6l-10.7-1.8c-3.2-1.4-5.7-3.9-7.1-7.1C117.4,277.3,115.6,256,115.6,218.7L115.6,218.7z
			 M318.3,220.4l32-72.9l26.7,72.9H318.3z M515.6,120.9v177.8c-0.1,1.9-1.7,3.4-3.6,3.5h-16v14.2h108.5v-14.2h-21.3
			c-5.3,0-8.9-12.5-8.9-35.6v-55.1h17.8l24.9,55.1c10.7,21.4,19.6,35.6,28.4,44.5c2,2.2,4.4,4,7.1,5.3h69.3v-14.2
			c-7.1,0-14.2-3.5-19.6-8.9c-19.6-19.6-39.1-51.6-62.2-92.5c16-1.8,28.4-8.9,37.3-21.3c7.1-8.9,10.7-16,10.7-24.9
			c0-30.2-12.4-49.8-39.1-62.2c-13.5-5.8-28-8.9-42.7-8.9H487.2v14.2H505c3.6,0,5.4,1.8,7.1,3.6
			C513.9,103.1,515.7,110.2,515.6,120.9L515.6,120.9z M583.2,101.3c12.4,0,23.1,5.3,32,16c8.9,10.7,12.4,23.1,12.4,35.6
			c0,14.2-3.5,24.9-10.7,33.8c-8.9,7.1-19.6,10.7-32,10.7h-10.7v-92.4C574.3,103.1,577.8,101.3,583.2,101.3z M750.3,120.9v177.8
			c-0.1,1.9-1.6,3.4-3.5,3.5h-16v14.2H809c33.8,0,58.7-3.5,72.9-8.9c30.2-10.7,44.5-30.2,44.5-56.9c0-33.8-21.3-55.1-64-64
			c16-5.3,26.7-10.7,35.6-16c12.4-8.9,17.8-19.6,17.8-35.6c0-8.9-3.6-17.8-10.7-26.7c-12.4-16-35.6-24.9-65.8-24.9H721.9v14.2h17.8
			c3.5,0,5.3,1.8,7.1,3.6S750.3,110.2,750.3,120.9z M945.9,97.8h-17.8V83.5h186.7l-3.6,37.3c-1.8,3.6-3.6,5.3-7.1,5.3
			s-5.3-1.8-5.3-7.1l-3.6-7.1l-7.1-5.3l-30.2-5.3H1017l-1.8,5.3v76.5h19.6c19.6,0,32-1.8,37.3-3.5c3.5-1.8,5.3-5.3,5.3-10.7v-12.4
			h12.4v64h-12.4v-5.3c0-7.1-1.8-10.7-3.6-12.4c-3.6-1.8-12.4-3.6-26.7-3.6h-32v44.4c0,23.1,0,39.1,1.8,48c1.8,5.3,3.6,8.9,7.1,8.9
			l55.1-3.5c19.6-3.5,30.2-10.7,35.6-19.6l7.1-5.3c3.6,0,5.3,1.8,5.3,5.3c0,5.3-3.6,17.8-10.7,39.1H937v-14.2h16
			c1.9-0.1,3.4-1.6,3.5-3.5V120.9c0-10.7-1.8-17.8-3.5-19.6S949.4,97.8,945.9,97.8L945.9,97.8z M844.6,181.3l-35.6-1.8v-74.7
			c0-1.8,3.6-3.6,8.9-3.6c12.4,0,24.9,3.6,33.8,12.4s12.5,21.3,12.5,35.6c-0.2,6.7-1.4,13.3-3.5,19.6
			C857,176,851.7,179.6,844.6,181.3L844.6,181.3z M825,300.5l-8.9-1.8c-1.8,0-3.5-1.8-3.5-5.3c-1.8-5.4-3.6-23.1-3.6-49.8v-49.8
			c21.3,0,37.3,7.1,49.8,21.4c8.9,10.7,12.5,23.1,12.5,35.6c-0.1,12.7-5.3,24.8-14.2,33.8C848.1,295.1,837.4,300.5,825,300.5
			L825,300.5z"/>
	</g>
</g>
</svg>
